<svg width="72" height="72" viewBox="0 0 72 72" fill="none" xmlns="http://www.w3.org/2000/svg">
<g clip-path="url(#clip0)">
<path d="M16.5299 33.0001H1.52983C0.701832 33.0001 0.0297852 33.6721 0.0297852 34.5001V70.5001C0.0297852 71.3279 0.701832 72 1.52983 72H16.5299C17.3579 72 18.0299 71.3279 18.0299 70.4999V34.5C18.0298 33.672 17.3608 33.0001 16.5299 33.0001Z" fill="#222D32"/>
<path d="M43.4698 0H28.4698C27.6418 0 26.9697 0.672047 26.9697 1.50005V70.5001C26.9697 71.3281 27.6418 72.0001 28.4698 72.0001H43.4698C44.2978 72.0001 44.9699 71.3281 44.9699 70.5001V1.50005C44.9699 0.672047 44.2978 0 43.4698 0Z" fill="#222D32"/>
<path d="M70.4698 15H55.4698C54.6418 15 53.9697 15.6721 53.9697 16.5001V70.5001C53.9697 71.3281 54.6418 72.0001 55.4698 72.0001H70.4698C71.2978 72.0001 71.9699 71.3281 71.9699 70.5001V16.5001C71.9699 15.672 71.2978 15 70.4698 15Z" fill="#222D32"/>
</g>
<defs>
<clipPath id="clip0">
<rect width="72" height="72" fill="white"/>
</clipPath>
</defs>
</svg>
