<svg width="72" height="72" viewBox="0 0 72 72" fill="none" xmlns="http://www.w3.org/2000/svg">
<g clip-path="url(#clip0)">
<path d="M14.8797 57.4776H63.9239C64.0741 57.4776 64.2196 57.4562 64.3594 57.4228C64.3705 57.4228 64.3798 57.4247 64.3909 57.4247C65.4378 57.4247 66.2884 56.5751 66.2884 55.5274V1.8975C66.2885 0.850076 65.4378 0 64.3909 0H63.9277H17.9145H14.8824C9.83178 0 5.72357 4.10914 5.72357 9.15834C5.72357 9.22606 5.7369 9.29033 5.74348 9.35569C5.7369 14.0199 5.67905 56.8781 5.7369 62.5123C5.73329 62.6225 5.71981 62.7301 5.71981 62.8414C5.71981 67.6965 9.5214 71.6711 14.3032 71.9715C14.3991 71.9862 14.4932 72.0002 14.5927 72.0002H64.3907C65.4377 72.0002 66.2882 71.1506 66.2882 70.1027V62.9602C66.2882 61.9131 65.4375 61.0627 64.3907 61.0627C63.3439 61.0627 62.4932 61.9132 62.4932 62.9602V68.2053H14.8797C11.9962 68.2053 9.64242 65.9159 9.52673 63.0611C9.52956 63.0102 9.5388 62.9621 9.53786 62.9102C9.53598 62.8268 9.53316 62.6971 9.53128 62.5247C9.69712 59.7151 12.0292 57.4776 14.8797 57.4776ZM16.1736 9.15834C16.1736 8.11091 17.0236 7.26084 18.0711 7.26084C19.1185 7.26084 19.9686 8.11091 19.9686 9.15834V47.7018C19.9686 48.7487 19.1185 49.5993 18.0711 49.5993C17.0236 49.5993 16.1736 48.7486 16.1736 47.7018V9.15834Z" fill="#222D32"/>
</g>
<defs>
<clipPath id="clip0">
<rect width="72" height="72" fill="white"/>
</clipPath>
</defs>
</svg>
