<svg width="32" height="32" viewBox="0 0 32 32" fill="none" xmlns="http://www.w3.org/2000/svg">
<g clip-path="url(#clip0)">
<path d="M15.7523 8C24.4521 8 31.5046 6.20914 31.5046 4C31.5046 1.79086 24.4521 0 15.7523 0C7.05255 0 0 1.79086 0 4C0 6.20914 7.05255 8 15.7523 8Z" fill="#979B9D"/>
<path d="M15.7523 10.6667C7.0531 10.6667 0 8.87608 0 6.66675V16.0001C0 18.2094 7.0531 20.0001 15.7523 20.0001C24.4515 20.0001 31.5046 18.2094 31.5046 16.0001V6.66675C31.5046 8.87608 24.4515 10.6667 15.7523 10.6667ZM4.59443 16.0001C3.50752 16.0001 2.62539 15.1041 2.62539 14.0001C2.62539 12.8961 3.50752 12.0001 4.59443 12.0001C5.68134 12.0001 6.56347 12.8961 6.56347 14.0001C6.56347 15.1041 5.68134 16.0001 4.59443 16.0001Z" fill="#979B9D"/>
<path d="M15.7523 22.6667C7.0531 22.6667 0 20.8761 0 18.6667V28.0001C0 30.2094 7.0531 32.0001 15.7523 32.0001C24.4515 32.0001 31.5046 30.2094 31.5046 28.0001V18.6667C31.5046 20.8761 24.4515 22.6667 15.7523 22.6667ZM4.59443 28.0001C3.50752 28.0001 2.62539 27.1041 2.62539 26.0001C2.62539 24.8961 3.50752 24.0001 4.59443 24.0001C5.68134 24.0001 6.56347 24.8961 6.56347 26.0001C6.56347 27.1041 5.68134 28.0001 4.59443 28.0001Z" fill="#979B9D"/>
</g>
<defs>
<clipPath id="clip0">
<rect width="31.5046" height="32" fill="white"/>
</clipPath>
</defs>
</svg>
