<svg width="38" height="32" viewBox="0 0 38 32" fill="none" xmlns="http://www.w3.org/2000/svg">
<path d="M3.63123 21.061L7.88288 22.4919L12.1345 21.061L7.88288 19.7095L3.63123 21.061Z" fill="#979B9D"/>
<path d="M30.3053 15.5625H24.8587C24.3888 15.5625 23.9381 15.7238 23.6058 16.011C23.2735 16.2982 23.0869 16.6876 23.0869 17.0938C23.0869 17.4999 23.2735 17.8893 23.6058 18.1765C23.9381 18.4637 24.3888 18.625 24.8587 18.625H30.3053C30.7752 18.625 31.2259 18.4637 31.5582 18.1765C31.8905 17.8893 32.0772 17.4999 32.0772 17.0938C32.0772 16.6876 31.8905 16.2982 31.5582 16.011C31.2259 15.7238 30.7752 15.5625 30.3053 15.5625Z" fill="#979B9D"/>
<path d="M8.34489 16.332C7.00947 16.3323 5.70412 16.6747 4.59389 17.316C3.48366 17.9573 2.61841 18.8687 2.10755 19.935C1.59668 21.0013 1.46315 22.1745 1.72384 23.3064C1.98452 24.4382 2.62771 25.4779 3.57208 26.2938C4.51646 27.1098 5.71959 27.6654 7.02937 27.8905C8.33914 28.1156 9.69673 27.9999 10.9305 27.5582C12.1642 27.1166 13.2187 26.3686 13.9606 25.4091C14.7025 24.4495 15.0984 23.3213 15.0984 22.1673C15.0962 20.6201 14.3839 19.1368 13.1178 18.0429C11.8517 16.9489 10.1352 16.3337 8.34489 16.332ZM13.5171 21.0362L13.5244 21.9412L13.8769 22.7107C13.9822 22.9411 14.0344 23.1872 14.0306 23.435V24.5125C14.0319 24.5523 14.0238 24.5918 14.0068 24.6288C13.9898 24.6657 13.9642 24.6993 13.9316 24.7273C13.8991 24.7554 13.8602 24.7775 13.8174 24.7921C13.7747 24.8068 13.7289 24.8137 13.6829 24.8125H12.6053C12.4055 24.8125 12.2224 24.6852 12.2224 24.5125V23.4492C12.2269 23.189 12.2925 22.9323 12.4153 22.6947L12.8011 21.9433V21.5098L11.7886 21.842V24.4482C11.791 24.511 11.7708 24.5729 11.7307 24.6253C11.6907 24.6778 11.6328 24.7182 11.5651 24.741C9.19145 25.5078 6.57716 25.5078 4.20352 24.741C4.13557 24.7183 4.0774 24.678 4.037 24.6256C3.9966 24.5732 3.97595 24.5113 3.97788 24.4483V21.8421L2.48848 21.3438C2.41896 21.3212 2.35889 21.2811 2.31609 21.2286C2.27328 21.1761 2.24972 21.1138 2.24845 21.0496C2.24915 20.9862 2.27218 20.9244 2.31447 20.8725C2.35677 20.8207 2.41633 20.7812 2.48523 20.7593L7.75821 19.0832C7.83831 19.0566 7.92676 19.0553 8.00779 19.0798L13.2806 20.7525C13.3491 20.773 13.4085 20.8112 13.4509 20.862C13.4932 20.9127 13.5163 20.9736 13.5171 21.0362Z" fill="#979B9D"/>
<path d="M13.3073 23.435C13.309 23.2678 13.2728 23.1019 13.2008 22.9466L13.1437 22.8162L13.0769 22.9405C12.9937 23.1007 12.9491 23.2738 12.9457 23.4493V24.1876H13.3073V23.435Z" fill="#979B9D"/>
<path d="M7.88763 23.1397C7.84432 23.1397 7.80141 23.1325 7.76129 23.1184L4.70099 22.0852V23.3138C6.76235 23.9308 9.00395 23.9308 11.0653 23.3138V22.0852L8.00718 23.1186C7.9694 23.1326 7.92872 23.1398 7.88763 23.1397Z" fill="#979B9D"/>
<path d="M33.575 4H5.40165C5.15756 4.00002 4.91586 4.0416 4.69036 4.12236C4.46487 4.20313 4.26 4.3215 4.08746 4.47071C3.91492 4.61992 3.77809 4.79705 3.68479 4.99198C3.59149 5.1869 3.54355 5.39581 3.5437 5.60675V17.2223C4.55948 16.4867 5.7833 15.9977 7.08976 15.8053C8.39622 15.613 9.73837 15.7243 10.9787 16.1278C12.219 16.5312 13.3129 17.2124 14.1483 18.1015C14.9838 18.9906 15.5307 20.0556 15.733 21.1875H33.5748C34.0702 21.1841 34.5439 21.0117 34.8929 20.7078C35.2418 20.4039 35.4376 19.9931 35.4376 19.565V5.60675C35.4369 5.18031 35.2403 4.77156 34.8911 4.47029C34.5418 4.16901 34.0685 3.99987 33.575 4ZM6.07981 6.875H17.8502C17.9461 6.875 18.0381 6.90792 18.1059 6.96653C18.1737 7.02513 18.2118 7.10462 18.2118 7.1875C18.2118 7.27038 18.1737 7.34987 18.1059 7.40847C18.0381 7.46708 17.9461 7.5 17.8502 7.5H6.07981C5.9839 7.5 5.89193 7.46708 5.82411 7.40847C5.7563 7.34987 5.7182 7.27038 5.7182 7.1875C5.7182 7.10462 5.7563 7.02513 5.82411 6.96653C5.89193 6.90792 5.9839 6.875 6.07981 6.875ZM6.62945 9.375H6.07981C5.9839 9.375 5.89193 9.34208 5.82411 9.28347C5.7563 9.22487 5.7182 9.14538 5.7182 9.0625C5.7182 8.97962 5.7563 8.90013 5.82411 8.84153C5.89193 8.78292 5.9839 8.75 6.07981 8.75H6.62945C6.72536 8.75 6.81734 8.78292 6.88515 8.84153C6.95297 8.90013 6.99106 8.97962 6.99106 9.0625C6.99106 9.14538 6.95297 9.22487 6.88515 9.28347C6.81734 9.34208 6.72536 9.375 6.62945 9.375ZM15.6256 9.375H8.27629C8.18039 9.375 8.08841 9.34208 8.0206 9.28347C7.95278 9.22487 7.91469 9.14538 7.91469 9.0625C7.91469 8.97962 7.95278 8.90013 8.0206 8.84153C8.08841 8.78292 8.18039 8.75 8.27629 8.75H15.6259C15.7218 8.75 15.8138 8.78292 15.8816 8.84153C15.9494 8.90013 15.9875 8.97962 15.9875 9.0625C15.9875 9.14538 15.9494 9.22487 15.8816 9.28347C15.8138 9.34208 15.7218 9.375 15.6259 9.375H15.6256ZM20.7234 9.375H17.2249C17.129 9.375 17.037 9.34208 16.9692 9.28347C16.9014 9.22487 16.8633 9.14538 16.8633 9.0625C16.8633 8.97962 16.9014 8.90013 16.9692 8.84153C17.037 8.78292 17.129 8.75 17.2249 8.75H20.7237C20.8196 8.75 20.9116 8.78292 20.9794 8.84153C21.0473 8.90013 21.0853 8.97962 21.0853 9.0625C21.0853 9.14538 21.0473 9.22487 20.9794 9.28347C20.9116 9.34208 20.8196 9.375 20.7237 9.375H20.7234ZM20.7234 7.5H19.4491C19.3532 7.5 19.2613 7.46708 19.1934 7.40847C19.1256 7.34987 19.0875 7.27038 19.0875 7.1875C19.0875 7.10462 19.1256 7.02513 19.1934 6.96653C19.2613 6.90792 19.3532 6.875 19.4491 6.875H20.7237C20.8196 6.875 20.9116 6.90792 20.9794 6.96653C21.0473 7.02513 21.0853 7.10462 21.0853 7.1875C21.0853 7.27038 21.0473 7.34987 20.9794 7.40847C20.9116 7.46708 20.8196 7.5 20.7237 7.5H20.7234ZM30.3053 19.25H24.8587C24.197 19.25 23.5624 19.0228 23.0944 18.6184C22.6265 18.2141 22.3636 17.6656 22.3636 17.0938C22.3636 16.5219 22.6265 15.9734 23.0944 15.5691C23.5624 15.1647 24.197 14.9375 24.8587 14.9375H30.3053C30.967 14.9375 31.6017 15.1647 32.0696 15.5691C32.5375 15.9734 32.8004 16.5219 32.8004 17.0938C32.8004 17.6656 32.5375 18.2141 32.0696 18.6184C31.6017 19.0228 30.967 19.25 30.3053 19.25ZM33.3403 11.6313C33.3403 11.7141 33.3022 11.7936 33.2344 11.8522C33.1665 11.9108 33.0746 11.9438 32.9787 11.9438C32.8828 11.9438 32.7908 11.9108 32.723 11.8522C32.6552 11.7936 32.6171 11.7141 32.6171 11.6313V7.96744C32.6171 7.88456 32.6552 7.80507 32.723 7.74647C32.7908 7.68786 32.8828 7.65494 32.9787 7.65494C33.0746 7.65494 33.1665 7.68786 33.2344 7.74647C33.3022 7.80507 33.3403 7.88456 33.3403 7.96744V11.6313ZM33.3403 6.53912C33.3403 6.62201 33.3022 6.70149 33.2344 6.7601C33.1665 6.8187 33.0746 6.85162 32.9787 6.85162C32.8828 6.85162 32.7908 6.8187 32.723 6.7601C32.6552 6.70149 32.6171 6.62201 32.6171 6.53912V6.14825C32.6171 6.06537 32.6552 5.98588 32.723 5.92728C32.7908 5.86867 32.8828 5.83575 32.9787 5.83575C33.0746 5.83575 33.1665 5.86867 33.2344 5.92728C33.3022 5.98588 33.3403 6.06537 33.3403 6.14825V6.53912Z" fill="#979B9D"/>
<path d="M4.70099 23.9722V24.2284C6.76235 24.8454 9.00394 24.8454 11.0653 24.2284V23.9722C8.99567 24.5452 6.77062 24.5452 4.70099 23.9722Z" fill="#979B9D"/>
</svg>
