<svg width="72" height="72" viewBox="0 0 72 72" fill="none" xmlns="http://www.w3.org/2000/svg">
<g clip-path="url(#clip0)">
<path d="M28.4819 14.5999H30.9776V17.0956H28.4819V14.5999Z" fill="#222D32"/>
<path d="M28.4819 24.5826H30.9776V27.0782H28.4819V24.5826Z" fill="#222D32"/>
<path d="M28.4819 34.5652H30.9776V37.0609H28.4819V34.5652Z" fill="#222D32"/>
<path d="M16.0034 44.5479H18.4991V47.0436H16.0034V44.5479Z" fill="#222D32"/>
<path d="M58.4297 27.0782H60.9253V29.5739H58.4297V27.0782Z" fill="#222D32"/>
<path d="M16.0034 34.5652H18.4991V37.0609H16.0034V34.5652Z" fill="#222D32"/>
<path d="M16.0034 14.5999H18.4991V17.0956H16.0034V14.5999Z" fill="#222D32"/>
<path d="M28.4819 44.5479H30.9776V47.0436H28.4819V44.5479Z" fill="#222D32"/>
<path d="M16.0034 24.5826H18.4991V27.0782H16.0034V24.5826Z" fill="#222D32"/>
<path d="M48.4473 37.0609H50.9429V39.5566H48.4473V37.0609Z" fill="#222D32"/>
<path d="M58.4297 37.0609H60.9253V39.5566H58.4297V37.0609Z" fill="#222D32"/>
<path d="M58.4297 47.0436H60.9253V49.5392H58.4297V47.0436Z" fill="#222D32"/>
<path d="M48.4473 27.0782H50.9429V29.5739H48.4473V27.0782Z" fill="#222D32"/>
<path d="M48.4473 47.0436H50.9429V49.5392H48.4473V47.0436Z" fill="#222D32"/>
<path d="M14.7559 57.0262H22.2429V67.0089H14.7559V57.0262Z" fill="#222D32"/>
<path d="M24.7388 57.0262H32.2258V67.0089H24.7388V57.0262Z" fill="#222D32"/>
<path d="M50.9429 59.5219H58.4299V67.0089H50.9429V59.5219Z" fill="#222D32"/>
<path d="M65.9169 69.5046V23.0612L43.4558 17.4459V69.5046H40.9602V9.31854L6.02084 0V69.5046H2.27734V72.0003H69.6604V69.5046H65.9169ZM25.9862 13.3521C25.9862 12.663 26.5449 12.1042 27.234 12.1042H32.2253C32.9145 12.1042 33.4732 12.663 33.4732 13.3521V18.3434C33.4732 19.0325 32.9145 19.5912 32.2253 19.5912H27.234C26.5449 19.5912 25.9862 19.0325 25.9862 18.3434V13.3521ZM25.9862 23.3347C25.9862 22.6456 26.5449 22.0869 27.234 22.0869H32.2253C32.9145 22.0869 33.4732 22.6456 33.4732 23.3347V28.3261C33.4732 29.0152 32.9145 29.5739 32.2253 29.5739H27.234C26.5449 29.5739 25.9862 29.0152 25.9862 28.3261V23.3347ZM25.9862 33.3174C25.9862 32.6283 26.5449 32.0696 27.234 32.0696H32.2253C32.9145 32.0696 33.4732 32.6283 33.4732 33.3174V38.3087C33.4732 38.9979 32.9145 39.5566 32.2253 39.5566H27.234C26.5449 39.5566 25.9862 38.9979 25.9862 38.3087V33.3174ZM25.9862 43.3001C25.9862 42.611 26.5449 42.0522 27.234 42.0522H32.2253C32.9145 42.0522 33.4732 42.611 33.4732 43.3001V48.2914C33.4732 48.9805 32.9145 49.5392 32.2253 49.5392H27.234C26.5449 49.5392 25.9862 48.9805 25.9862 48.2914V43.3001ZM13.5078 13.3521C13.5078 12.663 14.0666 12.1042 14.7557 12.1042H19.747C20.4361 12.1042 20.9948 12.663 20.9948 13.3521V18.3434C20.9948 19.0325 20.4361 19.5912 19.747 19.5912H14.7557C14.0666 19.5912 13.5078 19.0325 13.5078 18.3434V13.3521ZM13.5078 23.3347C13.5078 22.6456 14.0666 22.0869 14.7557 22.0869H19.747C20.4361 22.0869 20.9948 22.6456 20.9948 23.3347V28.3261C20.9948 29.0152 20.4361 29.5739 19.747 29.5739H14.7557C14.0666 29.5739 13.5078 29.0152 13.5078 28.3261V23.3347ZM13.5078 33.3174C13.5078 32.6283 14.0666 32.0696 14.7557 32.0696H19.747C20.4361 32.0696 20.9948 32.6283 20.9948 33.3174V38.3087C20.9948 38.9979 20.4361 39.5566 19.747 39.5566H14.7557C14.0666 39.5566 13.5078 38.9979 13.5078 38.3087V33.3174ZM13.5078 43.3001C13.5078 42.611 14.0666 42.0522 14.7557 42.0522H19.747C20.4361 42.0522 20.9948 42.611 20.9948 43.3001V48.2914C20.9948 48.9805 20.4361 49.5392 19.747 49.5392H14.7557C14.0666 49.5392 13.5078 48.9805 13.5078 48.2914V43.3001ZM34.721 67.0089V69.5046H12.26V55.7784C12.26 55.0893 12.8187 54.5306 13.5078 54.5306H33.4732C34.1623 54.5306 34.721 55.0893 34.721 55.7784V67.0089ZM45.9515 25.8304C45.9515 25.1413 46.5102 24.5826 47.1993 24.5826H52.1907C52.8798 24.5826 53.4385 25.1413 53.4385 25.8304V30.8217C53.4385 31.5108 52.8798 32.0696 52.1907 32.0696H47.1993C46.5102 32.0696 45.9515 31.5108 45.9515 30.8217V25.8304ZM45.9515 35.8131C45.9515 35.124 46.5102 34.5652 47.1993 34.5652H52.1907C52.8798 34.5652 53.4385 35.124 53.4385 35.8131V40.8044C53.4385 41.4935 52.8798 42.0522 52.1907 42.0522H47.1993C46.5102 42.0522 45.9515 41.4935 45.9515 40.8044V35.8131ZM45.9515 50.7871V45.7957C45.9515 45.1066 46.5102 44.5479 47.1993 44.5479H52.1907C52.8798 44.5479 53.4385 45.1066 53.4385 45.7957V50.7871C53.4385 51.4762 52.8798 52.0349 52.1907 52.0349H47.1993C46.5102 52.0349 45.9515 51.4762 45.9515 50.7871ZM60.9255 69.5046H48.4472V58.2741C48.4472 57.585 49.0059 57.0262 49.695 57.0262H59.6777C60.3668 57.0262 60.9255 57.585 60.9255 58.2741V69.5046ZM63.4212 50.7871C63.4212 51.4762 62.8625 52.0349 62.1734 52.0349H57.182C56.4929 52.0349 55.9342 51.4762 55.9342 50.7871V45.7957C55.9342 45.1066 56.4929 44.5479 57.182 44.5479H62.1734C62.8625 44.5479 63.4212 45.1066 63.4212 45.7957V50.7871ZM63.4212 40.8044C63.4212 41.4935 62.8625 42.0522 62.1734 42.0522H57.182C56.4929 42.0522 55.9342 41.4935 55.9342 40.8044V35.8131C55.9342 35.124 56.4929 34.5652 57.182 34.5652H62.1734C62.8625 34.5652 63.4212 35.124 63.4212 35.8131V40.8044ZM63.4212 30.8217C63.4212 31.5108 62.8625 32.0696 62.1734 32.0696H57.182C56.4929 32.0696 55.9342 31.5108 55.9342 30.8217V25.8304C55.9342 25.1413 56.4929 24.5826 57.182 24.5826H62.1734C62.8625 24.5826 63.4212 25.1413 63.4212 25.8304V30.8217Z" fill="#222D32"/>
</g>
<defs>
<clipPath id="clip0">
<rect width="72" height="72" fill="white"/>
</clipPath>
</defs>
</svg>
