<svg width="72" height="72" viewBox="0 0 72 72" fill="none" xmlns="http://www.w3.org/2000/svg">
<path d="M14.9062 72H57.0938C60.5832 72 63.4219 69.1613 63.4219 65.6719V21.0938H48.6562C45.1668 21.0938 42.3281 18.2551 42.3281 14.7656V0H14.9062C11.4168 0 8.57812 2.83866 8.57812 6.32812V65.6719C8.57812 69.1613 11.4168 72 14.9062 72ZM23.3438 29.6719H48.6562C49.8222 29.6719 50.7656 30.6153 50.7656 31.7812C50.7656 32.9472 49.8222 33.8906 48.6562 33.8906H23.3438C22.1778 33.8906 21.2344 32.9472 21.2344 31.7812C21.2344 30.6153 22.1778 29.6719 23.3438 29.6719ZM23.3438 38.1094H48.6562C49.8222 38.1094 50.7656 39.0528 50.7656 40.2188C50.7656 41.3847 49.8222 42.3281 48.6562 42.3281H23.3438C22.1778 42.3281 21.2344 41.3847 21.2344 40.2188C21.2344 39.0528 22.1778 38.1094 23.3438 38.1094ZM23.3438 46.5469H48.6562C49.8222 46.5469 50.7656 47.4903 50.7656 48.6562C50.7656 49.8222 49.8222 50.7656 48.6562 50.7656H23.3438C22.1778 50.7656 21.2344 49.8222 21.2344 48.6562C21.2344 47.4903 22.1778 46.5469 23.3438 46.5469ZM23.3438 54.9844H40.2188C41.3847 54.9844 42.3281 55.9278 42.3281 57.0938C42.3281 58.2597 41.3847 59.2031 40.2188 59.2031H23.3438C22.1778 59.2031 21.2344 58.2597 21.2344 57.0938C21.2344 55.9278 22.1778 54.9844 23.3438 54.9844Z" fill="#222D32"/>
<path d="M48.6562 16.875H62.1859L46.5469 1.23596V14.7656C46.5469 15.9294 47.4924 16.875 48.6562 16.875Z" fill="#222D32"/>
</svg>
