<svg width="296" height="296" viewBox="0 0 296 296" fill="none" xmlns="http://www.w3.org/2000/svg">
<path d="M256.489 54.2667C256.501 52.9649 255.997 51.7112 255.088 50.7788L205.754 1.44547C204.826 0.530333 203.57 0.0259 202.267 0.0444V0H54.2666C46.0926 0 39.4666 6.62608 39.4666 14.8V281.2C39.4666 289.374 46.0926 296 54.2666 296H241.733C249.907 296 256.533 289.374 256.533 281.2V54.2667H256.489ZM207.2 16.8424L239.691 49.3333H212.133C209.409 49.3333 207.2 47.1244 207.2 44.4V16.8424ZM246.667 281.2C246.667 283.924 244.458 286.133 241.733 286.133H54.2666C51.5421 286.133 49.3332 283.924 49.3332 281.2V14.8C49.3332 12.0756 51.5421 9.86667 54.2666 9.86667H197.333V44.4C197.333 52.5739 203.959 59.2 212.133 59.2H246.667V281.2Z" fill="#979B9D"/>
<path d="M88.8 133.2C80.6261 133.2 74 139.826 74 148C74 156.174 80.6261 162.8 88.8 162.8C96.9739 162.8 103.6 156.174 103.6 148C103.6 139.826 96.9739 133.2 88.8 133.2ZM88.8 152.933C86.0756 152.933 83.8667 150.724 83.8667 148C83.8667 145.276 86.0756 143.067 88.8 143.067C91.5244 143.067 93.7333 145.276 93.7333 148C93.7333 150.724 91.5244 152.933 88.8 152.933Z" fill="#979B9D"/>
<path d="M222 143.067H123.333V152.933H222V143.067Z" fill="#979B9D"/>
<path d="M88.8 83.8667C80.6261 83.8667 74 90.4928 74 98.6667C74 106.841 80.6261 113.467 88.8 113.467C96.9739 113.467 103.6 106.841 103.6 98.6667C103.6 90.4928 96.9739 83.8667 88.8 83.8667ZM88.8 103.6C86.0756 103.6 83.8667 101.391 83.8667 98.6667C83.8667 95.9422 86.0756 93.7333 88.8 93.7333C91.5244 93.7333 93.7333 95.9422 93.7333 98.6667C93.7333 101.391 91.5244 103.6 88.8 103.6Z" fill="#979B9D"/>
<path d="M222 93.7333H123.333V103.6H222V93.7333Z" fill="#979B9D"/>
<path d="M88.8 182.533C80.6261 182.533 74 189.159 74 197.333C74 205.507 80.6261 212.133 88.8 212.133C96.9739 212.133 103.6 205.507 103.6 197.333C103.6 189.159 96.9739 182.533 88.8 182.533ZM88.8 202.267C86.0756 202.267 83.8667 200.058 83.8667 197.333C83.8667 194.609 86.0756 192.4 88.8 192.4C91.5244 192.4 93.7333 194.609 93.7333 197.333C93.7333 200.058 91.5244 202.267 88.8 202.267Z" fill="#979B9D"/>
<path d="M222 192.4H123.333V202.267H222V192.4Z" fill="#979B9D"/>
<path d="M88.8 231.867C80.6261 231.867 74 238.493 74 246.667C74 254.841 80.6261 261.467 88.8 261.467C96.9739 261.467 103.6 254.841 103.6 246.667C103.6 238.493 96.9739 231.867 88.8 231.867ZM88.8 251.6C86.0756 251.6 83.8667 249.391 83.8667 246.667C83.8667 243.942 86.0756 241.733 88.8 241.733C91.5244 241.733 93.7333 243.942 93.7333 246.667C93.7333 249.391 91.5244 251.6 88.8 251.6Z" fill="#979B9D"/>
<path d="M222 241.733H123.333V251.6H222V241.733Z" fill="#979B9D"/>
</svg>
