<svg width="32" height="32" viewBox="0 0 32 32" fill="none" xmlns="http://www.w3.org/2000/svg">
<path d="M31.11 15.6253C31.6811 14.9873 31.6259 14.0095 30.9869 13.4418L16.907 0.928161C16.2679 0.360497 15.2433 0.372389 14.6177 0.954969L0.489987 14.109C-0.135642 14.6916 -0.166349 15.6681 0.422002 16.2893L0.776204 16.664C1.36384 17.2852 2.31368 17.3592 2.89638 16.8289L3.95221 15.8685V29.9289C3.95221 30.7915 4.64038 31.4899 5.48907 31.4899H10.9961C11.8448 31.4899 12.5329 30.7915 12.5329 29.9289V20.0923H19.5572V29.9289C19.545 30.7909 20.1522 31.4893 21.0009 31.4893H26.837C27.6857 31.4893 28.3738 30.7909 28.3738 29.9283V16.0665C28.3738 16.0665 28.6655 16.326 29.0252 16.6472C29.3844 16.9677 30.1387 16.7107 30.7098 16.0721L31.11 15.6253Z" fill="#979B9D"/>
</svg>
