<svg width="40" height="40" viewBox="0 0 40 40" fill="none" xmlns="http://www.w3.org/2000/svg">
<path d="M27.174 3.0218H21.1717V0H18.8279V3.0218H12.8257V6.36672H27.174V3.0218Z" fill="#979B9D"/>
<path d="M30.6755 37.6563V8.71048H9.32441V37.6563H4.00684V40H35.9931V37.6563H30.6755ZM18.6866 11.6496H21.3133V13.9934H18.6866V11.6496ZM18.6866 16.9324H21.3133V19.2762H18.6866V16.9324ZM18.6866 22.2153H21.3133V24.5591H18.6866V22.2153ZM12.0926 11.6496H14.7193V13.9934H12.0926V11.6496ZM12.0926 16.9324H14.7193V19.2762H12.0926V16.9324ZM12.0926 22.2153H14.7193V24.5591H12.0926V22.2153ZM27.7659 37.6563H25.4221V30.1184H21.1718V37.6563H18.8281V30.1184H14.5778V37.6563H12.234V27.7746H27.7659V37.6563ZM27.9074 24.5591H25.2807V22.2153H27.9074V24.5591ZM27.9074 19.2762H25.2807V16.9324H27.9074V19.2762ZM27.9074 13.9934H25.2807V11.6496H27.9074V13.9934Z" fill="#979B9D"/>
</svg>
