<svg width="72" height="72" viewBox="0 0 72 72" fill="none" xmlns="http://www.w3.org/2000/svg">
<g clip-path="url(#clip0)">
<path d="M71.0981 35.1568C72.4033 33.7214 72.2772 31.5213 70.8167 30.2441L38.6389 2.08837C37.1784 0.811126 34.8367 0.837882 33.4069 2.14869L1.11981 31.7452C-0.309994 33.056 -0.38017 35.2533 0.964434 36.6509L1.77392 37.494C3.11688 38.8916 5.28763 39.0583 6.61932 37.865L9.03229 35.7042V67.34C9.03229 69.281 10.605 70.8523 12.5446 70.8523H25.1302C27.0698 70.8523 28.6425 69.281 28.6425 67.34V45.2077H44.6956V67.34C44.6677 69.2796 46.0555 70.8509 47.995 70.8509H61.3326C63.2722 70.8509 64.8449 69.2796 64.8449 67.3386V36.1496C64.8449 36.1496 65.5115 36.7336 66.3336 37.4562C67.1544 38.1774 68.8783 37.5991 70.1834 36.1623L71.0981 35.1568Z" fill="#222D32"/>
</g>
<defs>
<clipPath id="clip0">
<rect width="72" height="72" fill="white"/>
</clipPath>
</defs>
</svg>
