<svg width="32" height="32" viewBox="0 0 32 32" fill="none" xmlns="http://www.w3.org/2000/svg">
<g clip-path="url(#clip0)">
<path d="M22.6667 14.3333C21.9293 14.3333 21.3333 13.736 21.3333 13V8C21.3333 5.05867 18.9413 2.66667 16 2.66667C13.0587 2.66667 10.6667 5.05867 10.6667 8V13C10.6667 13.736 10.0707 14.3333 9.33333 14.3333C8.596 14.3333 8 13.736 8 13V8C8 3.588 11.588 0 16 0C20.412 0 24 3.588 24 8V13C24 13.736 23.404 14.3333 22.6667 14.3333Z" fill="#979B9D"/>
<path d="M25 32H7C5.34667 32 4 30.6547 4 29V15C4 13.3453 5.34667 12 7 12H25C26.6533 12 28 13.3453 28 15V29C28 30.6547 26.6533 32 25 32Z" fill="#979B9D"/>
<path d="M18.6668 20C18.6668 18.5293 17.4708 17.3333 16.0002 17.3333C14.5295 17.3333 13.3335 18.5293 13.3335 20C13.3335 20.9827 13.8735 21.8333 14.6668 22.296V25.3333C14.6668 26.0693 15.2628 26.6667 16.0002 26.6667C16.7375 26.6667 17.3335 26.0693 17.3335 25.3333V22.296C18.1268 21.8333 18.6668 20.9827 18.6668 20V20Z" fill="#979B9D"/>
<path d="M16 0C11.588 0 8 3.588 8 8V12H10.6667V8C10.6667 5.05867 13.0587 2.66667 16 2.66667V0Z" fill="#979B9D"/>
<path d="M16 12H10.6667H8H7C5.34667 12 4 13.3453 4 15V29C4 30.6547 5.34667 32 7 32H16V26.6667C15.2627 26.6667 14.6667 26.0693 14.6667 25.3333V22.296C13.8733 21.8333 13.3333 20.9827 13.3333 20C13.3333 18.5293 14.5293 17.3333 16 17.3333V12Z" fill="#979B9D"/>
<path d="M16.0002 17.3333C14.5295 17.3333 13.3335 18.5293 13.3335 20C13.3335 20.9827 13.8735 21.8333 14.6668 22.296V25.3333C14.6668 26.0693 15.2628 26.6667 16.0002 26.6667V17.3333Z" fill="#979B9D"/>
</g>
<defs>
<clipPath id="clip0">
<rect width="32" height="32" fill="white"/>
</clipPath>
</defs>
</svg>
