<svg width="32" height="21" viewBox="0 0 32 21" fill="none" xmlns="http://www.w3.org/2000/svg">
<path d="M32 4.9517V3.34091C32 1.49577 30.433 0 28.5 0H3.5C1.567 0 0 1.49577 0 3.34091V4.9517C0 5.11642 0.139938 5.25 0.3125 5.25H31.6875C31.8601 5.25 32 5.11642 32 4.9517Z" fill="#979B9D"/>
<path d="M0 7.45738V17.6591C0 19.5042 1.567 21 3.5 21H28.5C30.433 21 32 19.5042 32 17.6591V7.45738C32 7.29266 31.8601 7.15909 31.6875 7.15909H0.3125C0.139938 7.15909 0 7.29266 0 7.45738ZM8 15.2727C8 15.7999 7.55225 16.2273 7 16.2273H6C5.44775 16.2273 5 15.7999 5 15.2727V14.3182C5 13.791 5.44775 13.3636 6 13.3636H7C7.55225 13.3636 8 13.791 8 14.3182V15.2727Z" fill="#979B9D"/>
</svg>
