<svg width="72" height="72" viewBox="0 0 72 72" fill="none" xmlns="http://www.w3.org/2000/svg">
<path d="M17.2969 5.31295C17.2969 5.08917 17.208 4.87456 17.0497 4.71633C16.8915 4.5581 16.6769 4.4692 16.4531 4.4692C16.2293 4.4692 16.0147 4.5581 15.8565 4.71633C15.6983 4.87456 15.6094 5.08917 15.6094 5.31295V10.4062H17.2969V5.31295Z" fill="#222D32"/>
<path d="M56.3906 5.31295C56.3906 5.08917 56.3017 4.87456 56.1435 4.71633C55.9853 4.5581 55.7707 4.4692 55.5469 4.4692C55.3231 4.4692 55.1085 4.5581 54.9503 4.71633C54.792 4.87456 54.7031 5.08917 54.7031 5.31295V10.4062H56.3906V5.31295Z" fill="#222D32"/>
<path d="M53.1353 45.1432C53.1351 45.4581 53.2284 45.766 53.4033 46.0279C53.5782 46.2898 53.8268 46.494 54.1178 46.6146C54.4087 46.7351 54.7288 46.7667 55.0377 46.7054C55.3466 46.644 55.6304 46.4924 55.8531 46.2697C56.0758 46.0471 56.2275 45.7633 56.289 45.4545C56.3504 45.1456 56.3189 44.8254 56.1984 44.5345C56.0779 44.2435 55.8738 43.9948 55.6119 43.8199C55.3501 43.6449 55.0422 43.5516 54.7273 43.5516C54.3053 43.5521 53.9007 43.7199 53.6023 44.0183C53.3038 44.3167 53.1359 44.7212 53.1353 45.1432Z" fill="#222D32"/>
<path d="M21.6685 36.6803L34.7696 41.7797L47.8715 36.6806C47.9129 36.6605 47.9558 36.6438 47.9999 36.6307L52.3181 34.9501L34.7696 28.4992L17.2212 34.9495L21.5392 36.63C21.5836 36.6431 21.6269 36.66 21.6685 36.6803Z" fill="#222D32"/>
<path d="M34.7527 43.5284C34.6425 43.5284 34.5333 43.509 34.4299 43.4709L22.0781 38.6767V45.6217C30.375 48.5211 39.2344 48.5213 47.3906 45.6217V38.6767L35.0654 43.4709C34.9655 43.5089 34.8595 43.5284 34.7527 43.5284Z" fill="#222D32"/>
<path d="M54.5777 53.8594C53.6776 53.8678 52.8172 54.2305 52.1826 54.8689C51.5481 55.5072 51.1906 56.3699 51.1875 57.27V66.7394L64.944 53.8594H54.5777Z" fill="#222D32"/>
<path d="M56.3906 15.2702C56.3906 15.494 56.3017 15.7086 56.1435 15.8668C55.9853 16.025 55.7707 16.1139 55.5469 16.1139C55.3231 16.1139 55.1085 16.025 54.9503 15.8668C54.792 15.7086 54.7031 15.494 54.7031 15.2702V10.4062H17.2969V15.2702C17.2969 15.494 17.208 15.7086 17.0497 15.8668C16.8915 16.025 16.6769 16.1139 16.4531 16.1139C16.2293 16.1139 16.0147 16.025 15.8565 15.8668C15.6983 15.7086 15.6094 15.494 15.6094 15.2702V10.4062H5.76562V21.375H66.2344V10.4062H56.3906V15.2702Z" fill="#222D32"/>
<path d="M5.76562 67.5H49.5V57.27C49.5036 55.9225 50.039 54.6309 50.9899 53.6762C51.9408 52.7215 53.2302 52.1808 54.5777 52.1719H66.2344V23.0625H5.76562V67.5ZM14.5455 34.135L34.4783 26.8085C34.6663 26.7394 34.8727 26.7394 35.0606 26.8085L54.9934 34.135C55.1544 34.194 55.2936 34.3006 55.3924 34.4407C55.4913 34.5807 55.5452 34.7476 55.5469 34.919C55.5469 34.9452 55.5441 34.9708 55.5418 34.9966C55.5454 35.0272 55.5474 35.0579 55.5476 35.0886V41.967C56.3192 42.1654 56.9922 42.6377 57.4412 43.2958C57.8902 43.9539 58.0845 44.7529 57.9878 45.5437C57.891 46.3345 57.51 47.0631 56.9156 47.5936C56.3213 48.1242 55.5543 48.4204 54.7576 48.427C53.9609 48.4337 53.1891 48.1503 52.586 47.6297C51.9829 47.1092 51.5897 46.387 51.4798 45.5979C51.37 44.8089 51.5509 44.0068 51.9889 43.3413C52.4268 42.6758 53.0919 42.1923 53.8601 41.9811V36.1607L49.0788 38.0199V52.6701C49.0775 52.8428 49.0235 53.0109 48.9242 53.1521C48.8249 53.2934 48.6849 53.401 48.5229 53.4607C39.6379 56.7681 29.8595 56.7681 20.9745 53.4607C20.8092 53.4025 20.6652 53.296 20.5611 53.1551C20.457 53.0141 20.3976 52.8452 20.3906 52.6701V38.0199L14.4972 35.7137C14.3413 35.6497 14.2091 35.5389 14.1188 35.3967C14.0285 35.2545 13.9845 35.0877 13.9929 34.9194C13.9944 34.748 14.0481 34.5812 14.1469 34.441C14.2456 34.3009 14.3847 34.1942 14.5455 34.135Z" fill="#222D32"/>
<path d="M22.0781 47.4073V52.0793C30.375 54.979 39.2344 54.979 47.3906 52.0793V47.4073C43.3131 48.7845 39.0381 49.4866 34.7344 49.4859C30.4315 49.4753 26.1583 48.7735 22.0781 47.4073Z" fill="#222D32"/>
</svg>
