<svg width="32" height="32" viewBox="0 0 32 32" fill="none" xmlns="http://www.w3.org/2000/svg">
<g clip-path="url(#clip0)">
<path d="M17.4293 15.3395C17.7922 15.151 18.1965 15.0513 18.616 15.0513C19.3112 15.0513 19.9647 15.3254 20.4574 15.8232L21.518 14.7461C24.1426 15.6805 27.1782 15.0823 29.2763 12.9512C31.0418 11.1581 31.738 8.6909 31.3663 6.36532C31.3254 6.10921 31.1469 5.89797 30.9039 5.81828C30.6609 5.73848 30.3941 5.80332 30.2135 5.98683L28.6388 7.58635C27.3564 8.88893 25.277 8.88893 23.9946 7.58635C22.7121 6.28377 22.7121 4.17172 23.9946 2.86914L25.5694 1.26962C25.75 1.08611 25.8144 0.815159 25.7357 0.568223C25.6572 0.321178 25.4489 0.140289 25.1966 0.098696C22.9071 -0.278803 20.4781 0.42838 18.7127 2.22156C16.5834 4.38437 16.0103 7.52751 16.9897 10.2201L14.6895 12.5565L17.4293 15.3395Z" fill="#E5E5E5" fill-opacity="0.6"/>
<path d="M13.2379 19.5732L10.5096 16.802L0.969437 26.4921C-0.271062 27.7521 -0.271062 29.795 0.969437 31.055C2.20994 32.315 4.22116 32.315 5.46166 31.055L13.6859 22.7015C12.8564 21.8545 12.7069 20.5757 13.2379 19.5732Z" fill="#E5E5E5" fill-opacity="0.6"/>
<path d="M19.3242 16.9861C19.1291 16.7879 18.8733 16.6888 18.6176 16.6888C18.3619 16.6888 18.1061 16.7879 17.9111 16.9861L17.3415 17.5645L7.19657 7.26005L7.67076 6.77841C8.10281 6.33966 8.04918 5.61185 7.55672 5.24352L3.41757 2.14722C3.01979 1.84974 2.46779 1.89198 2.11849 2.24678L0.361026 4.03198C0.0117255 4.38678 -0.0298681 4.94757 0.263007 5.35149L3.31127 9.55572C3.6739 10.0558 4.39002 10.1108 4.8224 9.67155L5.29659 9.1898L15.4416 19.4943L14.832 20.1135C14.4417 20.5099 14.4417 21.1524 14.832 21.5488L24.191 31.055C25.4315 32.315 27.4427 32.315 28.6832 31.055C29.9237 29.795 29.9237 27.7521 28.6832 26.4921L19.3242 16.9861Z" fill="#E5E5E5" fill-opacity="0.6"/>
</g>
<defs>
<clipPath id="clip0">
<rect width="31.5046" height="32" fill="white"/>
</clipPath>
</defs>
</svg>
