<svg width="138" height="72" viewBox="0 0 138 72" fill="none" xmlns="http://www.w3.org/2000/svg">
<g clip-path="url(#clip0)">
<path d="M35.8858 69.9578H102.114C102.999 69.9578 103.824 69.5966 104.377 68.9675C104.858 68.4219 105.071 67.7295 104.979 67.0184C103.426 54.9191 95.9866 44.8367 85.8016 39.4611C81.4967 43.7661 75.5537 46.4324 69.0002 46.4324C62.4466 46.4324 56.5034 43.7661 52.1987 39.4611C42.0135 44.8353 34.5722 54.9191 33.0206 67.0184C32.9293 67.7295 33.1435 68.4233 33.623 68.9675C34.1765 69.5966 35.0013 69.9578 35.8858 69.9578Z" fill="#222D32"/>
<path d="M54.0767 36.8452C54.4632 37.2505 54.8668 37.6367 55.2845 38.0104C58.9334 41.2745 63.7318 43.277 69.0001 43.277C74.2684 43.277 79.0668 41.2728 82.7157 38.0104C83.1334 37.6367 83.5373 37.2502 83.9234 36.8452C84.3082 36.4399 84.6836 36.0254 85.0367 35.5902C87.8956 32.05 89.6174 27.5546 89.6174 22.66C89.6174 11.2907 80.3674 2.04243 68.9998 2.04243C57.6322 2.04243 48.3828 11.2922 48.3828 22.6597C48.3828 27.5543 50.1046 32.05 52.9635 35.5899C53.3151 36.0254 53.6903 36.4385 54.0767 36.8452Z" fill="#222D32"/>
</g>
<g clip-path="url(#clip1)">
<path d="M91.9239 68.6386H136.076C136.666 68.6386 137.216 68.3977 137.585 67.9783C137.905 67.6146 138.047 67.153 137.986 66.6789C136.951 58.6127 131.991 51.8912 125.201 48.3074C122.331 51.1774 118.369 52.9549 114 52.9549C109.631 52.9549 105.669 51.1774 102.799 48.3074C96.009 51.8902 91.0482 58.6127 90.0137 66.6789C89.9529 67.153 90.0957 67.6155 90.4154 67.9783C90.7843 68.3977 91.3342 68.6386 91.9239 68.6386Z" fill="#222D32"/>
<path d="M104.051 46.5635C104.308 46.8337 104.578 47.0911 104.856 47.3403C107.289 49.5164 110.488 50.8513 114 50.8513C117.512 50.8513 120.711 49.5152 123.143 47.3403C123.422 47.0911 123.691 46.8335 123.949 46.5635C124.205 46.2933 124.455 46.0169 124.691 45.7268C126.597 43.3667 127.745 40.3698 127.745 37.1067C127.745 29.5271 121.578 23.3616 114 23.3616C106.421 23.3616 100.255 29.5281 100.255 37.1065C100.255 40.3696 101.403 43.3667 103.309 45.7266C103.543 46.0169 103.793 46.2923 104.051 46.5635Z" fill="#222D32"/>
</g>
<g clip-path="url(#clip2)">
<path d="M1.92389 68.6386H46.0761C46.6658 68.6386 47.2157 68.3977 47.5847 67.9783C47.9053 67.6146 48.0472 67.153 47.9863 66.6789C46.9509 58.6127 41.9911 51.8912 35.2011 48.3074C32.3311 51.1774 28.3691 52.9549 24.0001 52.9549C19.6311 52.9549 15.6689 51.1774 12.7992 48.3074C6.00898 51.8902 1.04815 58.6127 0.0137375 66.6789C-0.0471446 67.153 0.0956866 67.6155 0.415366 67.9783C0.78433 68.3977 1.3342 68.6386 1.92389 68.6386Z" fill="#222D32"/>
<path d="M14.0508 46.5635C14.3085 46.8337 14.5775 47.0911 14.856 47.3403C17.2886 49.5164 20.4875 50.8513 23.9997 50.8513C27.512 50.8513 30.7109 49.5152 33.1434 47.3403C33.422 47.0911 33.6912 46.8335 33.9486 46.5635C34.2051 46.2933 34.4554 46.0169 34.6908 45.7268C36.5967 43.3667 37.7446 40.3698 37.7446 37.1067C37.7446 29.5271 31.5779 23.3616 23.9995 23.3616C16.4212 23.3616 10.2549 29.5281 10.2549 37.1065C10.2549 40.3696 11.4028 43.3667 13.3087 45.7266C13.5431 46.0169 13.7932 46.2923 14.0508 46.5635Z" fill="#222D32"/>
</g>
<defs>
<clipPath id="clip0">
<rect width="72" height="72" fill="white" transform="translate(33)"/>
</clipPath>
<clipPath id="clip1">
<rect width="48" height="48" fill="white" transform="translate(90 22)"/>
</clipPath>
<clipPath id="clip2">
<rect width="48" height="48" fill="white" transform="translate(0 22)"/>
</clipPath>
</defs>
</svg>
