<svg width="292" height="81" viewBox="0 0 292 81" fill="none" xmlns="http://www.w3.org/2000/svg">
<g clip-path="url(#clip0)">
<path d="M3.10156 22.7866L7.41791 25.3254C8.46406 24.438 9.74732 23.8751 11.1089 23.7052L41.6173 19.9574C42.3958 19.8617 43.1044 20.4149 43.2 21.1935C43.2957 21.9727 42.7425 22.6813 41.9632 22.7769L11.4556 26.5255C10.9966 26.5851 10.5501 26.7196 10.1349 26.9241L41.7774 45.574L80.454 22.7866L41.7774 0L3.10156 22.7866Z" fill="white"/>
<path d="M41.0565 48.4462L13.3809 32.1424V46.9238C13.3809 50.8325 16.7599 54.6323 22.6514 57.3486C28.6898 59.938 35.2073 61.224 41.7775 61.1221C48.347 61.2247 54.8645 59.9387 60.9029 57.3486C66.7951 54.6323 70.1741 50.8325 70.1741 46.9238V32.1424L42.4992 48.4462C42.0541 48.7083 41.5016 48.7083 41.0565 48.4462Z" fill="white"/>
<path d="M9.12055 78.1601L6.28089 62.5419L0.601562 80.9997L9.12055 78.1601Z" fill="white"/>
<path d="M10.5407 58.2825C10.5379 56.4827 9.39957 54.8805 7.70104 54.2843V30.7524C7.7052 30.1548 7.83554 29.5648 8.08442 29.0213C8.49346 28.1055 9.21239 27.3637 10.115 26.9255L7.40848 25.3268C6.67291 25.9508 6.07115 26.7182 5.64131 27.5814C5.13592 28.5623 4.869 29.6487 4.86138 30.7524V54.2843C2.82453 55.0102 1.65636 57.1482 2.1465 59.2544C2.63734 61.3606 4.62982 62.7631 6.7776 62.5142C8.92537 62.266 10.5449 60.4448 10.5407 58.2825Z" fill="white"/>
</g>
<path d="M99.744 36.36C99.744 35.32 99.928 34.296 100.296 33.288C100.68 32.28 101.232 31.368 101.952 30.552C102.672 29.736 103.552 29.088 104.592 28.608C105.632 28.112 106.816 27.864 108.144 27.864C109.696 27.864 111.048 28.208 112.2 28.896C113.352 29.584 114.208 30.48 114.768 31.584L112.224 33.336C111.936 32.696 111.56 32.192 111.096 31.824C110.632 31.456 110.128 31.192 109.584 31.032C109.056 30.872 108.544 30.792 108.048 30.792C107.216 30.792 106.488 30.96 105.864 31.296C105.256 31.632 104.744 32.072 104.328 32.616C103.912 33.16 103.6 33.768 103.392 34.44C103.2 35.112 103.104 35.784 103.104 36.456C103.104 37.464 103.312 38.408 103.728 39.288C104.144 40.152 104.728 40.856 105.48 41.4C106.232 41.944 107.104 42.216 108.096 42.216C108.608 42.216 109.136 42.128 109.68 41.952C110.24 41.776 110.752 41.496 111.216 41.112C111.68 40.728 112.04 40.232 112.296 39.624L115.008 41.184C114.656 42.032 114.104 42.752 113.352 43.344C112.6 43.92 111.752 44.368 110.808 44.688C109.864 44.992 108.928 45.144 108 45.144C106.784 45.144 105.672 44.896 104.664 44.4C103.672 43.888 102.808 43.216 102.072 42.384C101.336 41.536 100.76 40.592 100.344 39.552C99.944 38.496 99.744 37.432 99.744 36.36ZM122.678 45.24C121.302 45.24 120.118 44.944 119.126 44.352C118.15 43.744 117.398 42.944 116.87 41.952C116.342 40.96 116.078 39.888 116.078 38.736C116.078 37.568 116.342 36.488 116.87 35.496C117.414 34.504 118.174 33.712 119.15 33.12C120.142 32.512 121.318 32.208 122.678 32.208C124.038 32.208 125.206 32.512 126.182 33.12C127.174 33.712 127.934 34.504 128.462 35.496C128.99 36.488 129.254 37.568 129.254 38.736C129.254 39.888 128.99 40.96 128.462 41.952C127.934 42.944 127.174 43.744 126.182 44.352C125.206 44.944 124.038 45.24 122.678 45.24ZM119.39 38.736C119.39 39.472 119.534 40.128 119.822 40.704C120.11 41.264 120.502 41.704 120.998 42.024C121.494 42.344 122.054 42.504 122.678 42.504C123.286 42.504 123.838 42.344 124.334 42.024C124.83 41.688 125.222 41.24 125.51 40.68C125.814 40.104 125.966 39.448 125.966 38.712C125.966 37.992 125.814 37.352 125.51 36.792C125.222 36.216 124.83 35.768 124.334 35.448C123.838 35.112 123.286 34.944 122.678 34.944C122.054 34.944 121.494 35.112 120.998 35.448C120.502 35.768 120.11 36.216 119.822 36.792C119.534 37.352 119.39 38 119.39 38.736ZM131.401 27.48H134.617V40.968C134.617 41.56 134.713 41.952 134.905 42.144C135.097 42.336 135.361 42.432 135.697 42.432C135.953 42.432 136.217 42.4 136.489 42.336C136.761 42.272 137.001 42.192 137.209 42.096L137.641 44.544C137.209 44.752 136.705 44.912 136.129 45.024C135.553 45.136 135.033 45.192 134.569 45.192C133.561 45.192 132.777 44.928 132.217 44.4C131.673 43.856 131.401 43.088 131.401 42.096V27.48ZM139.018 27.48H142.234V40.968C142.234 41.56 142.33 41.952 142.522 42.144C142.714 42.336 142.978 42.432 143.314 42.432C143.57 42.432 143.834 42.4 144.106 42.336C144.378 42.272 144.618 42.192 144.826 42.096L145.258 44.544C144.826 44.752 144.322 44.912 143.746 45.024C143.17 45.136 142.65 45.192 142.186 45.192C141.178 45.192 140.394 44.928 139.834 44.4C139.29 43.856 139.018 43.088 139.018 42.096V27.48ZM152.491 45.24C151.131 45.24 149.955 44.944 148.963 44.352C147.987 43.76 147.227 42.976 146.683 42C146.139 41.008 145.867 39.936 145.867 38.784C145.867 37.6 146.131 36.512 146.659 35.52C147.203 34.512 147.971 33.712 148.963 33.12C149.955 32.512 151.139 32.208 152.515 32.208C153.891 32.208 155.067 32.512 156.043 33.12C157.019 33.712 157.763 34.504 158.275 35.496C158.803 36.472 159.067 37.528 159.067 38.664C159.067 39.08 159.043 39.44 158.995 39.744H149.275C149.355 40.72 149.715 41.488 150.355 42.048C151.011 42.608 151.763 42.888 152.611 42.888C153.251 42.888 153.851 42.736 154.411 42.432C154.987 42.112 155.379 41.696 155.587 41.184L158.347 41.952C157.883 42.912 157.139 43.704 156.115 44.328C155.091 44.936 153.883 45.24 152.491 45.24ZM149.203 37.704H155.779C155.683 36.76 155.323 36 154.699 35.424C154.091 34.832 153.347 34.536 152.467 34.536C151.603 34.536 150.859 34.832 150.235 35.424C149.627 36 149.283 36.76 149.203 37.704ZM165.947 45.072C164.827 45.072 163.843 44.784 162.995 44.208C162.147 43.632 161.483 42.864 161.003 41.904C160.523 40.928 160.283 39.864 160.283 38.712C160.283 37.496 160.531 36.4 161.027 35.424C161.523 34.432 162.211 33.648 163.09 33.072C163.971 32.496 164.987 32.208 166.139 32.208C167.115 32.208 167.971 32.432 168.707 32.88C169.443 33.312 170.051 33.896 170.531 34.632V32.424H173.339V44.4C173.339 45.648 173.035 46.712 172.427 47.592C171.835 48.488 171.011 49.168 169.955 49.632C168.899 50.112 167.699 50.352 166.355 50.352C164.979 50.352 163.819 50.12 162.875 49.656C161.947 49.208 161.147 48.568 160.475 47.736L162.227 46.032C162.707 46.624 163.307 47.088 164.027 47.424C164.763 47.76 165.539 47.928 166.355 47.928C167.027 47.928 167.643 47.8 168.203 47.544C168.779 47.304 169.243 46.92 169.595 46.392C169.947 45.88 170.123 45.216 170.123 44.4V42.816C169.707 43.536 169.115 44.096 168.347 44.496C167.595 44.88 166.795 45.072 165.947 45.072ZM167.027 42.504C167.731 42.504 168.363 42.296 168.923 41.88C169.499 41.464 169.899 40.968 170.123 40.392V37.392C169.835 36.656 169.379 36.064 168.755 35.616C168.147 35.168 167.507 34.944 166.835 34.944C166.179 34.944 165.603 35.128 165.107 35.496C164.627 35.864 164.251 36.344 163.979 36.936C163.707 37.512 163.571 38.136 163.571 38.808C163.571 39.496 163.723 40.12 164.027 40.68C164.331 41.24 164.739 41.688 165.251 42.024C165.779 42.344 166.371 42.504 167.027 42.504ZM182.069 45.24C180.709 45.24 179.533 44.944 178.541 44.352C177.565 43.76 176.805 42.976 176.261 42C175.717 41.008 175.445 39.936 175.445 38.784C175.445 37.6 175.709 36.512 176.237 35.52C176.781 34.512 177.549 33.712 178.541 33.12C179.533 32.512 180.717 32.208 182.093 32.208C183.469 32.208 184.645 32.512 185.621 33.12C186.597 33.712 187.341 34.504 187.853 35.496C188.381 36.472 188.645 37.528 188.645 38.664C188.645 39.08 188.621 39.44 188.573 39.744H178.853C178.933 40.72 179.293 41.488 179.933 42.048C180.589 42.608 181.341 42.888 182.189 42.888C182.829 42.888 183.429 42.736 183.989 42.432C184.565 42.112 184.957 41.696 185.165 41.184L187.925 41.952C187.461 42.912 186.717 43.704 185.693 44.328C184.669 44.936 183.461 45.24 182.069 45.24ZM178.781 37.704H185.357C185.261 36.76 184.901 36 184.277 35.424C183.669 34.832 182.925 34.536 182.045 34.536C181.181 34.536 180.437 34.832 179.813 35.424C179.205 36 178.861 36.76 178.781 37.704ZM196.682 45V27.96H203.906C204.69 27.96 205.41 28.12 206.066 28.44C206.738 28.76 207.314 29.192 207.794 29.736C208.274 30.28 208.65 30.888 208.922 31.56C209.194 32.232 209.33 32.92 209.33 33.624C209.33 34.584 209.106 35.496 208.658 36.36C208.21 37.224 207.586 37.928 206.786 38.472C206.002 39.016 205.082 39.288 204.026 39.288H199.994V45H196.682ZM199.994 36.384H203.834C204.442 36.384 204.946 36.136 205.346 35.64C205.762 35.128 205.97 34.456 205.97 33.624C205.97 32.744 205.738 32.064 205.274 31.584C204.81 31.104 204.282 30.864 203.69 30.864H199.994V36.384ZM216.874 45.24C215.498 45.24 214.314 44.944 213.322 44.352C212.346 43.744 211.594 42.944 211.066 41.952C210.538 40.96 210.274 39.888 210.274 38.736C210.274 37.568 210.538 36.488 211.066 35.496C211.61 34.504 212.37 33.712 213.346 33.12C214.338 32.512 215.514 32.208 216.874 32.208C218.234 32.208 219.402 32.512 220.378 33.12C221.37 33.712 222.13 34.504 222.658 35.496C223.186 36.488 223.45 37.568 223.45 38.736C223.45 39.888 223.186 40.96 222.658 41.952C222.13 42.944 221.37 43.744 220.378 44.352C219.402 44.944 218.234 45.24 216.874 45.24ZM213.586 38.736C213.586 39.472 213.73 40.128 214.018 40.704C214.306 41.264 214.698 41.704 215.194 42.024C215.69 42.344 216.25 42.504 216.874 42.504C217.482 42.504 218.034 42.344 218.53 42.024C219.026 41.688 219.418 41.24 219.706 40.68C220.01 40.104 220.162 39.448 220.162 38.712C220.162 37.992 220.01 37.352 219.706 36.792C219.418 36.216 219.026 35.768 218.53 35.448C218.034 35.112 217.482 34.944 216.874 34.944C216.25 34.944 215.69 35.112 215.194 35.448C214.698 35.768 214.306 36.216 214.018 36.792C213.73 37.352 213.586 38 213.586 38.736ZM233.108 35.208C232.132 35.208 231.26 35.4 230.492 35.784C229.724 36.152 229.172 36.688 228.836 37.392V45H225.62V32.424H228.572V35.112C229.004 34.248 229.564 33.568 230.252 33.072C230.956 32.576 231.692 32.304 232.46 32.256C232.796 32.256 233.012 32.264 233.108 32.28V35.208ZM242.438 44.352C242.006 44.544 241.47 44.736 240.83 44.928C240.206 45.12 239.558 45.216 238.886 45.216C238.294 45.216 237.75 45.112 237.254 44.904C236.758 44.696 236.358 44.368 236.054 43.92C235.766 43.456 235.622 42.856 235.622 42.12V34.896H233.966V32.424H235.622V28.344H238.838V32.424H241.478V34.896H238.838V41.04C238.838 41.472 238.95 41.784 239.174 41.976C239.414 42.168 239.702 42.264 240.038 42.264C240.374 42.264 240.702 42.208 241.022 42.096C241.342 41.984 241.598 41.888 241.79 41.808L242.438 44.352ZM243.248 41.28C243.248 40.464 243.472 39.752 243.92 39.144C244.384 38.52 245.024 38.04 245.84 37.704C246.656 37.368 247.592 37.2 248.648 37.2C249.176 37.2 249.712 37.248 250.256 37.344C250.8 37.424 251.272 37.544 251.672 37.704V37.032C251.672 36.232 251.432 35.616 250.952 35.184C250.488 34.752 249.792 34.536 248.864 34.536C248.176 34.536 247.52 34.656 246.896 34.896C246.272 35.136 245.616 35.488 244.928 35.952L243.896 33.84C244.728 33.296 245.576 32.888 246.44 32.616C247.32 32.344 248.24 32.208 249.2 32.208C250.992 32.208 252.384 32.656 253.376 33.552C254.384 34.448 254.888 35.728 254.888 37.392V41.4C254.888 41.752 254.944 42 255.056 42.144C255.168 42.272 255.368 42.352 255.656 42.384V45C255.368 45.064 255.104 45.104 254.864 45.12C254.64 45.152 254.448 45.168 254.288 45.168C253.648 45.168 253.16 45.024 252.824 44.736C252.488 44.448 252.288 44.096 252.224 43.68L252.152 43.032C251.592 43.752 250.904 44.304 250.088 44.688C249.288 45.056 248.464 45.24 247.616 45.24C246.768 45.24 246.016 45.072 245.36 44.736C244.704 44.384 244.184 43.912 243.8 43.32C243.432 42.712 243.248 42.032 243.248 41.28ZM251.072 41.928C251.472 41.544 251.672 41.176 251.672 40.824V39.552C250.84 39.216 250 39.048 249.152 39.048C248.304 39.048 247.616 39.232 247.088 39.6C246.56 39.952 246.296 40.424 246.296 41.016C246.296 41.496 246.488 41.928 246.872 42.312C247.256 42.696 247.808 42.888 248.528 42.888C249.008 42.888 249.472 42.8 249.92 42.624C250.384 42.448 250.768 42.216 251.072 41.928ZM257.87 27.48H261.086V40.968C261.086 41.56 261.182 41.952 261.374 42.144C261.566 42.336 261.83 42.432 262.166 42.432C262.422 42.432 262.686 42.4 262.958 42.336C263.23 42.272 263.47 42.192 263.678 42.096L264.11 44.544C263.678 44.752 263.174 44.912 262.598 45.024C262.022 45.136 261.502 45.192 261.038 45.192C260.03 45.192 259.246 44.928 258.686 44.4C258.142 43.856 257.87 43.088 257.87 42.096V27.48Z" fill="white"/>
<defs>
<clipPath id="clip0">
<rect width="81" height="81" fill="white"/>
</clipPath>
</defs>
</svg>
