<svg width="72" height="72" viewBox="0 0 72 72" fill="none" xmlns="http://www.w3.org/2000/svg">
<g clip-path="url(#clip0)">
<path d="M19.1996 15.601V10.8011C19.1996 10.1384 18.6623 9.6011 17.9996 9.6011H1.19998C0.537294 9.6011 0 10.1384 0 10.8011V15.601H19.1996Z" fill="#222D32"/>
<path d="M0 18.0009V57.6002H19.1996V18.0009H0ZM14.3997 33.6006H4.7999C4.13722 33.6006 3.59993 33.0633 3.59993 32.4007V22.8008C3.59993 22.1382 4.13722 21.6009 4.7999 21.6009H14.3997C15.0624 21.6009 15.5997 22.1382 15.5997 22.8008V32.4007C15.5997 33.0633 15.0624 33.6006 14.3997 33.6006Z" fill="#222D32"/>
<path d="M0 64.8V70.7999C0 71.4625 0.537294 71.9998 1.19998 71.9998H17.9996C18.6623 71.9998 19.1996 71.4625 19.1996 70.7999V64.8H0Z" fill="#222D32"/>
<path d="M0 60.0001H19.1996V62.4001H0V60.0001Z" fill="#222D32"/>
<path d="M21.5996 60.0001H37.1993V62.4001H21.5996V60.0001Z" fill="#222D32"/>
<path d="M37.1993 4.80119V1.20126C37.1993 0.538576 36.662 0.00128174 35.9993 0.00128174H22.7996C22.1369 0.00128174 21.5996 0.538576 21.5996 1.20126V4.80119H37.1993Z" fill="#222D32"/>
<path d="M21.5996 13.201H37.1993V57.6002H21.5996V13.201Z" fill="#222D32"/>
<path d="M21.5996 64.8V70.7999C21.5996 71.4625 22.1369 71.9998 22.7996 71.9998H35.9993C36.662 71.9998 37.1993 71.4625 37.1993 70.7999V64.8H21.5996Z" fill="#222D32"/>
<path d="M21.5996 7.20117H37.1993V10.8011H21.5996V7.20117Z" fill="#222D32"/>
<path d="M39.5703 24.8504L40.2125 27.3154L60.5347 21.8962L59.892 19.4312L39.5703 24.8504Z" fill="#222D32"/>
<path d="M49.5989 63.2918L69.9206 57.8726L68.6339 52.9397L48.311 58.3589L49.5989 63.2918Z" fill="#222D32"/>
<path d="M68.0276 50.6177L61.1412 24.2182L40.8184 29.6374L47.7047 56.0369L68.0276 50.6177Z" fill="#222D32"/>
<path d="M38.9644 22.5284L59.2855 17.1098L57.5629 10.5011C57.3854 9.86127 56.7315 9.47866 56.0869 9.63744L38.0873 14.4373C37.4516 14.6114 37.0725 15.2623 37.2348 15.901L38.9644 22.5284Z" fill="#222D32"/>
<path d="M70.526 60.1946L50.2031 65.6139L51.6345 71.0999C51.7177 71.4093 51.9205 71.6729 52.1988 71.8323C52.3798 71.9419 52.5873 71.9999 52.7988 71.9999C52.9037 71.9999 53.0085 71.9876 53.1105 71.9641L71.1101 67.1642C71.7459 66.9902 72.1249 66.3387 71.9626 65.7L70.526 60.1946Z" fill="#222D32"/>
</g>
<defs>
<clipPath id="clip0">
<rect width="72" height="72" fill="white"/>
</clipPath>
</defs>
</svg>
