<svg width="72" height="72" viewBox="0 0 72 72" fill="none" xmlns="http://www.w3.org/2000/svg">
<path d="M72 23.7656C72 19.0673 72 15.7805 72 15.4688C72 11.9794 69.1612 9.14062 65.6719 9.14062H64.8281V16.875C64.8281 18.0399 63.8837 18.9844 62.7188 18.9844C61.5538 18.9844 60.6094 18.0399 60.6094 16.875C60.6094 14.507 60.6094 7.983 60.6094 5.625C60.6094 4.46006 59.6649 3.51562 58.5 3.51562C57.3351 3.51562 56.3906 4.46006 56.3906 5.625V9.14062H42.3281V16.875C42.3281 18.0399 41.3837 18.9844 40.2188 18.9844C39.0538 18.9844 38.1094 18.0399 38.1094 16.875C38.1094 14.507 38.1094 7.983 38.1094 5.625C38.1094 4.46006 37.1649 3.51562 36 3.51562C34.8351 3.51562 33.8906 4.46006 33.8906 5.625V9.14062H19.8281V16.875C19.8281 18.0399 18.8837 18.9844 17.7188 18.9844C16.5538 18.9844 15.6094 18.0399 15.6094 16.875C15.6094 14.507 15.6094 7.983 15.6094 5.625C15.6094 4.46006 14.6649 3.51562 13.5 3.51562C12.3351 3.51562 11.3906 4.46006 11.3906 5.625V9.14062H6.32812C2.8388 9.14062 0 11.9794 0 15.4688V23.7656H72Z" fill="#222D32"/>
<path d="M0 27.9844V62.1562C0 65.6456 2.8388 68.4844 6.32812 68.4844H65.6719C69.1612 68.4844 72 65.6456 72 62.1562C72 61.2527 72 41.5108 72 27.9844C70.6873 27.9844 0.726188 27.9844 0 27.9844ZM20.25 57.2344H15.75C14.5851 57.2344 13.6406 56.2899 13.6406 55.125C13.6406 53.9601 14.5851 53.0156 15.75 53.0156H20.25C21.4149 53.0156 22.3594 53.9601 22.3594 55.125C22.3594 56.2899 21.4149 57.2344 20.25 57.2344ZM20.25 48.2344H15.75C14.5851 48.2344 13.6406 47.2899 13.6406 46.125C13.6406 44.9601 14.5851 44.0156 15.75 44.0156H20.25C21.4149 44.0156 22.3594 44.9601 22.3594 46.125C22.3594 47.2899 21.4149 48.2344 20.25 48.2344ZM20.25 39.2344H15.75C14.5851 39.2344 13.6406 38.2899 13.6406 37.125C13.6406 35.9601 14.5851 35.0156 15.75 35.0156H20.25C21.4149 35.0156 22.3594 35.9601 22.3594 37.125C22.3594 38.2899 21.4149 39.2344 20.25 39.2344ZM38.25 57.2344H33.75C32.5851 57.2344 31.6406 56.2899 31.6406 55.125C31.6406 53.9601 32.5851 53.0156 33.75 53.0156H38.25C39.4149 53.0156 40.3594 53.9601 40.3594 55.125C40.3594 56.2899 39.4149 57.2344 38.25 57.2344ZM38.25 48.2344H33.75C32.5851 48.2344 31.6406 47.2899 31.6406 46.125C31.6406 44.9601 32.5851 44.0156 33.75 44.0156H38.25C39.4149 44.0156 40.3594 44.9601 40.3594 46.125C40.3594 47.2899 39.4149 48.2344 38.25 48.2344ZM38.25 39.2344H33.75C32.5851 39.2344 31.6406 38.2899 31.6406 37.125C31.6406 35.9601 32.5851 35.0156 33.75 35.0156H38.25C39.4149 35.0156 40.3594 35.9601 40.3594 37.125C40.3594 38.2899 39.4149 39.2344 38.25 39.2344ZM56.25 57.2344H51.75C50.5851 57.2344 49.6406 56.2899 49.6406 55.125C49.6406 53.9601 50.5851 53.0156 51.75 53.0156H56.25C57.4149 53.0156 58.3594 53.9601 58.3594 55.125C58.3594 56.2899 57.4149 57.2344 56.25 57.2344ZM56.25 48.2344H51.75C50.5851 48.2344 49.6406 47.2899 49.6406 46.125C49.6406 44.9601 50.5851 44.0156 51.75 44.0156H56.25C57.4149 44.0156 58.3594 44.9601 58.3594 46.125C58.3594 47.2899 57.4149 48.2344 56.25 48.2344ZM56.25 39.2344H51.75C50.5851 39.2344 49.6406 38.2899 49.6406 37.125C49.6406 35.9601 50.5851 35.0156 51.75 35.0156H56.25C57.4149 35.0156 58.3594 35.9601 58.3594 37.125C58.3594 38.2899 57.4149 39.2344 56.25 39.2344Z" fill="#222D32"/>
</svg>
