<svg width="24" height="30" viewBox="0 0 24 30" fill="none" xmlns="http://www.w3.org/2000/svg">
<path d="M23.0011 7.9654L15.6344 0.598729C15.4214 0.385663 15.1335 0.266663 14.8332 0.266663H2.93317C1.68084 0.266663 0.666504 1.281 0.666504 2.53333V27.4667C0.666504 28.719 1.68084 29.7333 2.93317 29.7333H21.0665C22.3188 29.7333 23.3332 28.719 23.3332 27.4667V8.76666C23.3332 8.46633 23.2142 8.17846 23.0011 7.9654ZM15.3998 21.8H6.33317C5.70757 21.8 5.19984 21.2923 5.19984 20.6667C5.19984 20.0411 5.70757 19.5333 6.33317 19.5333H15.3998C16.0254 19.5333 16.5332 20.0411 16.5332 20.6667C16.5332 21.2923 16.0254 21.8 15.3998 21.8ZM17.6665 17.2667H6.33317C5.70757 17.2667 5.19984 16.7589 5.19984 16.1333C5.19984 15.5077 5.70757 15 6.33317 15H17.6665C18.2921 15 18.7998 15.5077 18.7998 16.1333C18.7998 16.7589 18.2921 17.2667 17.6665 17.2667ZM15.3998 9.33333C14.7742 9.33333 14.2665 8.8256 14.2665 8.2V2.42453L21.1753 9.33333H15.3998Z" fill="#979B9D"/>
</svg>
