<svg width="32" height="32" viewBox="0 0 32 32" fill="none" xmlns="http://www.w3.org/2000/svg">
<path d="M6.52238 32H24.9821C26.509 32 27.7511 30.7384 27.7511 29.1875V9.375H21.2902C19.7633 9.375 18.5212 8.11337 18.5212 6.5625V0H6.52238C4.99551 0 3.75342 1.26163 3.75342 2.8125V29.1875C3.75342 30.7384 4.99551 32 6.52238 32ZM10.2143 13.1875H21.2902C21.8003 13.1875 22.2132 13.6068 22.2132 14.125C22.2132 14.6432 21.8003 15.0625 21.2902 15.0625H10.2143C9.70416 15.0625 9.29134 14.6432 9.29134 14.125C9.29134 13.6068 9.70416 13.1875 10.2143 13.1875ZM10.2143 16.9375H21.2902C21.8003 16.9375 22.2132 17.3568 22.2132 17.875C22.2132 18.3932 21.8003 18.8125 21.2902 18.8125H10.2143C9.70416 18.8125 9.29134 18.3932 9.29134 17.875C9.29134 17.3568 9.70416 16.9375 10.2143 16.9375ZM10.2143 20.6875H21.2902C21.8003 20.6875 22.2132 21.1068 22.2132 21.625C22.2132 22.1432 21.8003 22.5625 21.2902 22.5625H10.2143C9.70416 22.5625 9.29134 22.1432 9.29134 21.625C9.29134 21.1068 9.70416 20.6875 10.2143 20.6875ZM10.2143 24.4375H17.5982C18.1084 24.4375 18.5212 24.8568 18.5212 25.375C18.5212 25.8932 18.1084 26.3125 17.5982 26.3125H10.2143C9.70416 26.3125 9.29134 25.8932 9.29134 25.375C9.29134 24.8568 9.70416 24.4375 10.2143 24.4375Z" fill="#979B9D"/>
<path d="M21.2902 7.5H27.2103L20.3672 0.549316V6.5625C20.3672 7.07975 20.7809 7.5 21.2902 7.5Z" fill="#979B9D"/>
</svg>
