<svg width="32" height="32" viewBox="0 0 32 32" fill="none" xmlns="http://www.w3.org/2000/svg">
<g clip-path="url(#clip0)">
<path d="M31.5046 21.874C31.5046 20.6534 30.7307 19.6225 29.6587 19.2342V9.52205L31.5046 8.74898L15.7523 2.32936L0 8.74898L15.7523 15.1687L27.8127 10.2749V19.2342C26.7407 19.6225 25.9667 20.6534 25.9667 21.874C25.9667 22.9915 26.6165 23.9507 27.5482 24.404L26.0145 29.0774L27.7649 29.6706L28.7357 26.7125L29.7064 29.6706L31.4568 29.0774L29.9232 24.404C30.8549 23.9508 31.5046 22.9915 31.5046 21.874Z" fill="#979B9D"/>
<path d="M15.7522 17.1892L7.44531 13.8012V16.249C7.44531 18.9214 11.0165 20.9365 15.7522 20.9365C20.4879 20.9365 24.0591 18.9214 24.0591 16.249V13.8012L15.7522 17.1892Z" fill="#979B9D"/>
</g>
<defs>
<clipPath id="clip0">
<rect width="31.5046" height="32" fill="white"/>
</clipPath>
</defs>
</svg>
