<svg width="72" height="72" viewBox="0 0 72 72" fill="none" xmlns="http://www.w3.org/2000/svg">
<g clip-path="url(#clip0)">
<path d="M68.1818 63.1557H66.6546C66.4637 61.2469 64.7456 59.7196 62.6457 59.7196H59.973V36.0477H62.6457C64.1729 36.0477 65.7001 35.0931 66.2728 33.7569H67.991C70.2819 33.7569 72 32.0388 72 29.748C72 28.2208 71.2364 27.0754 70.091 26.3118L38.5921 1.87627C37.0649 0.73086 35.1559 0.73086 33.6287 1.87627L1.55744 26.6934C0.221137 27.6479 -0.351567 29.5569 0.221137 31.0842C0.79384 32.6114 2.32105 33.7568 4.03916 33.7568H5.75727C6.52088 35.0931 7.85718 36.0476 9.38439 36.0476H12.057V59.5284H9.38439C7.28448 59.5284 5.75727 61.0556 5.37547 62.9647H4.03916C1.74835 62.9647 0.0302356 64.6828 0.0302356 66.9736C0.0302356 69.2644 1.74835 70.9825 4.03916 70.9825H67.991C70.2819 70.9825 72 69.2642 72 66.9736C72 64.8738 70.2817 63.1557 68.1818 63.1557ZM33.4379 36.0477H38.783V59.5286H33.4379V36.0477ZM51.9552 59.7195H46.6101V36.0477H51.9552V59.7195ZM36.1106 10.0852L56.5368 25.7389H15.6841L36.1106 10.0852ZM20.0749 36.0477H25.4201V59.5286H20.0749V36.0477Z" fill="#222D32"/>
</g>
<defs>
<clipPath id="clip0">
<rect width="72" height="72" fill="white"/>
</clipPath>
</defs>
</svg>
