<svg width="72" height="72" viewBox="0 0 72 72" fill="none" xmlns="http://www.w3.org/2000/svg">
<path d="M36 23.9062C42.6015 23.9062 47.9531 18.5547 47.9531 11.9531C47.9531 5.3516 42.6015 0 36 0C29.3985 0 24.0469 5.3516 24.0469 11.9531C24.0469 18.5547 29.3985 23.9062 36 23.9062Z" fill="#222D32"/>
<path d="M44.7836 25.5255C42.2528 27.169 39.2362 28.125 36.0003 28.125C32.7644 28.125 29.7478 27.169 27.217 25.5255C24.4193 26.5947 21.8253 28.1721 19.5698 30.1965L36.0003 36.358L52.4308 30.1965C50.1753 28.1721 47.5813 26.5946 44.7836 25.5255Z" fill="#222D32"/>
<path d="M61.3125 43.5938H59.9062C58.7413 43.5938 57.7969 44.5382 57.7969 45.7031V51.3281C57.7969 52.4931 58.7413 53.4375 59.9062 53.4375H61.3125C64.0308 53.4375 66.2344 51.2339 66.2344 48.5156C66.2344 45.7973 64.0308 43.5938 61.3125 43.5938Z" fill="#222D32"/>
<path d="M12.2985 32.9451C11.7298 33.3392 11.3906 33.9869 11.3906 34.6788V39.375H12.0938C15.5831 39.375 18.4219 42.2138 18.4219 45.7031V51.3281C18.4219 54.8174 15.5831 57.6562 12.0938 57.6562H11.3906V62.1007C11.3906 62.98 11.9361 63.7671 12.7593 64.0758L33.8906 72V40.0725L14.2407 32.7037C13.5928 32.4606 12.867 32.5507 12.2985 32.9451Z" fill="#222D32"/>
<path d="M53.5781 51.3281V45.7031C53.5781 42.2138 56.4169 39.375 59.9062 39.375H60.6094V34.6788C60.6094 33.9869 60.2702 33.3392 59.7015 32.9451C59.1328 32.5507 58.4069 32.4606 57.7593 32.7037L38.1094 40.0725V72L59.2407 64.0758C60.0639 63.7671 60.6094 62.98 60.6094 62.1007V57.6562H59.9062C56.4169 57.6562 53.5781 54.8174 53.5781 51.3281Z" fill="#222D32"/>
<path d="M14.2031 51.3281V45.7031C14.2031 44.5382 13.2587 43.5938 12.0938 43.5938H10.6875C7.96922 43.5938 5.76562 45.7973 5.76562 48.5156C5.76562 51.2339 7.96922 53.4375 10.6875 53.4375H12.0938C13.2587 53.4375 14.2031 52.4931 14.2031 51.3281Z" fill="#222D32"/>
</svg>
