<svg width="72" height="72" viewBox="0 0 72 72" fill="none" xmlns="http://www.w3.org/2000/svg">
<path d="M19.2979 23.7244V65.4217H31.1067V51.6913H40.9137V65.4219H52.7227V23.7244L36.0102 12.539L19.2979 23.7244ZM30.1258 49.7299H24.2416V43.8455H30.1258V49.7299ZM30.1258 40.9034H24.2416V35.0196H30.1258V40.9034ZM30.1258 32.0773H24.2416V26.1929H30.1258V32.0773ZM41.8943 26.1929H47.7788V32.0773H41.8943V26.1929ZM41.8943 35.0195H47.7788V40.9033H41.8943V35.0195ZM41.8943 43.8455H47.7788V49.7299H41.8943V43.8455ZM38.9527 49.7299H33.0681V43.8455H38.9527V49.7299ZM38.9527 40.9034H33.0681V35.0196H38.9527V40.9034ZM38.9527 32.0773H33.0681V26.1929H38.9527V32.0773Z" fill="#222D32"/>
<path d="M35.4646 10.5444H36.5562L53.8167 22.0955H59.3025L36.0104 6.57811L12.7183 22.0955H18.2039L35.4646 10.5444Z" fill="#222D32"/>
<path d="M70.5291 40.7405H55.4917V65.4217H70.5291V40.7405ZM65.9527 58.4551H60.0689V52.5708H65.9527V58.4551ZM65.9527 49.7299H60.0689V43.8455H65.9527V49.7299Z" fill="#222D32"/>
<path d="M72.0002 37.0193H55.4917V38.7792H72.0002V37.0193Z" fill="#222D32"/>
<path d="M16.5089 40.7405H1.47119V65.4217H16.5089V40.7405ZM11.9317 58.4551H6.04742V52.5708H11.9317V58.4551ZM11.9317 49.7299H6.04742V43.8455H11.9317V49.7299Z" fill="#222D32"/>
<path d="M16.5087 37.0193H0V38.7792H16.5087V37.0193Z" fill="#222D32"/>
</svg>
