<svg width="32" height="32" viewBox="0 0 32 32" fill="none" xmlns="http://www.w3.org/2000/svg">
<g clip-path="url(#clip0)">
<path d="M12.0002 13.3333C15.6821 13.3333 18.6668 10.3486 18.6668 6.66667C18.6668 2.98477 15.6821 0 12.0002 0C8.31826 0 5.3335 2.98477 5.3335 6.66667C5.3335 10.3486 8.31826 13.3333 12.0002 13.3333Z" fill="#979B9D"/>
<path d="M15.3787 27.7333C14.684 26.5307 14.8227 25.0493 15.6493 24C14.8227 22.9507 14.684 21.4707 15.3787 20.2667L16.4573 18.4C17.0507 17.372 18.1573 16.7333 19.3453 16.7333C19.508 16.7333 19.668 16.7453 19.8267 16.768C19.8707 16.6587 19.9267 16.556 19.9813 16.452C19.2613 16.168 18.484 16 17.6667 16H6.33333C2.84133 16 0 18.8413 0 22.3333V27C0 27.552 0.448 28 1 28H15.532L15.3787 27.7333Z" fill="#979B9D"/>
<path d="M28.9374 24.6254C28.964 24.4187 29 24.2134 29 24C29 23.7854 28.9627 23.5814 28.9374 23.3747L30.1387 22.4654C30.4067 22.2627 30.4814 21.892 30.3134 21.6L29.2347 19.7334C29.0667 19.4427 28.708 19.3214 28.3987 19.452L27.016 20.0347C26.6787 19.7774 26.32 19.5507 25.924 19.3854L25.74 17.9174C25.6974 17.584 25.4147 17.3334 25.0787 17.3334H22.9227C22.5867 17.3334 22.3027 17.584 22.2614 17.9174L22.0774 19.3854C21.6814 19.5507 21.3214 19.7787 20.9854 20.0347L19.6027 19.452C19.2934 19.3214 18.9347 19.4414 18.7667 19.7334L17.688 21.6C17.52 21.8907 17.5947 22.2614 17.8627 22.4654L19.064 23.3747C19.0374 23.5814 19.0014 23.7867 19.0014 24C19.0014 24.2147 19.0387 24.4187 19.064 24.6254L17.8627 25.5347C17.5947 25.7374 17.52 26.108 17.688 26.4L18.7667 28.268C18.9347 28.5587 19.2934 28.68 19.6027 28.5494L20.9854 27.9654C21.3227 28.2227 21.6814 28.4494 22.0774 28.6147L22.2614 30.0827C22.3027 30.416 22.5854 30.6667 22.9214 30.6667H25.0774C25.4134 30.6667 25.6974 30.416 25.7387 30.0827L25.9227 28.6147C26.3187 28.4494 26.6787 28.2214 27.0147 27.9654L28.3974 28.548C28.7067 28.6787 29.0654 28.5587 29.2334 28.2667L30.312 26.3987C30.48 26.108 30.4054 25.7374 30.1374 25.5334L28.9374 24.6254ZM24 26.6667C22.5267 26.6667 21.3334 25.4734 21.3334 24C21.3334 22.5267 22.5267 21.3334 24 21.3334C25.4734 21.3334 26.6667 22.5267 26.6667 24C26.6667 25.4734 25.4734 26.6667 24 26.6667Z" fill="#979B9D"/>
</g>
<defs>
<clipPath id="clip0">
<rect width="32" height="32" fill="white"/>
</clipPath>
</defs>
</svg>
